<svg width="57" height="16" viewBox="0 0 57 16" fill="none" xmlns="http://www.w3.org/2000/svg">
    <path d="M11.6747 16C14.0634 16 15.9998 14.0636 15.9998 11.6749C15.9998 9.28626 14.0634 7.34985 11.6747 7.34985C9.28602 7.34985 7.34961 9.28626 7.34961 11.6749C7.34961 14.0636 9.28602 16 11.6747 16Z" fill="#9CA0AB"/>
    <path d="M3.55199 13.682C4.66046 13.682 5.55905 12.7834 5.55905 11.6749C5.55905 10.5664 4.66046 9.66785 3.55199 9.66785C2.44352 9.66785 1.54492 10.5664 1.54492 11.6749C1.54492 12.7834 2.44352 13.682 3.55199 13.682Z" fill="#9CA0AB"/>
    <path d="M11.6752 6.33219C13.2105 6.33219 14.455 5.08765 14.455 3.55244C14.455 2.01724 13.2105 0.772705 11.6752 0.772705C10.14 0.772705 8.89551 2.01724 8.89551 3.55244C8.89551 5.08765 10.14 6.33219 11.6752 6.33219Z" fill="#9CA0AB"/>
    <path d="M3.55241 7.10483C5.51436 7.10483 7.10483 5.51436 7.10483 3.55241C7.10483 1.59047 5.51436 0 3.55241 0C1.59047 0 0 1.59047 0 3.55241C0 5.51436 1.59047 7.10483 3.55241 7.10483Z" fill="#9CA0AB"/>
    <path d="M27.2229 13.6631H29.4655L25.31 2.35571H23.6799L19.5244 13.6631H21.7765L22.568 11.5053H26.4314L27.2229 13.6631L23.1899 9.79977L24.4997 6.24735L25.8095 9.79977H23.1899L27.2229 13.6631Z" fill="#9CA0AB"/>
    <path d="M35.025 5.9364L32.9614 11.5524L30.8978 5.9364H28.7871L31.6234 13.6631H34.29L37.1263 5.9364H35.025Z" fill="#9CA0AB"/>
    <path d="M38.0215 5.9364H40.1322V13.6631H38.0215V5.9364Z" fill="#9CA0AB"/>
    <path d="M39.0766 5.06009C39.826 5.06009 40.4335 4.45259 40.4335 3.7032C40.4335 2.95381 39.826 2.34631 39.0766 2.34631C38.3272 2.34631 37.7197 2.95381 37.7197 3.7032C37.7197 4.45259 38.3272 5.06009 39.0766 5.06009Z" fill="#9CA0AB"/>
    <path d="M47.5666 7.64186V5.93633H45.0413V3.80676H42.9305V5.93633H41.2627V7.64186H42.9305V10.9681C42.9305 12.6831 43.788 13.8233 45.9741 13.8233C46.8222 13.8233 47.5572 13.5123 47.5572 13.5123L47.3027 11.8445C47.3027 11.8445 46.8881 11.967 46.3793 11.967C45.7574 11.967 45.0318 11.6937 45.0318 10.8362V7.64186H47.5666Z" fill="#9CA0AB"/>
    <path d="M52.4003 11.8916C51.2224 11.8916 50.2707 10.9588 50.2707 9.8092C50.2707 8.65961 51.2224 7.72675 52.4003 7.72675C53.5782 7.72675 54.5299 8.65961 54.5299 9.8092C54.5299 10.9588 53.5782 11.8916 52.4003 11.8916ZM52.4003 5.73853C50.12 5.73853 48.2637 7.54771 48.2637 9.78093C48.2637 12.0141 50.12 13.8233 52.4003 13.8233C54.6806 13.8233 56.5369 12.0141 56.5369 9.78093C56.5369 7.54771 54.6806 5.73853 52.4003 5.73853Z" fill="#9CA0AB"/>
</svg>
