<svg width="24" height="22" viewBox="0 0 24 22" fill="none" xmlns="http://www.w3.org/2000/svg">
    <path d="M23.2969 7.48437H20.8223L15.4084 0.717023C15.1659 0.413883 14.7234 0.364617 14.4202 0.607242C14.1169 0.84982 14.0677 1.29227 14.3104 1.59551L19.0215 7.48437H4.97855L9.68967 1.59551C9.93225 1.29227 9.88308 0.849773 9.57989 0.607242C9.27661 0.364617 8.83416 0.413836 8.59162 0.717023L3.1777 7.48437H0.703125C0.314812 7.48437 0 7.79918 0 8.18749V9.59374C0 9.98206 0.314812 10.2969 0.703125 10.2969H23.2969C23.6852 10.2969 24 9.98206 24 9.59374V8.18749C24 7.79918 23.6852 7.48437 23.2969 7.48437Z" fill="#616575"/>
    <path d="M4.24587 21.0369C4.33212 21.3388 4.60802 21.5469 4.92195 21.5469H19.0782C19.3921 21.5469 19.668 21.3388 19.7543 21.0369L22.421 11.7031H1.5791L4.24587 21.0369ZM15.2206 17.9157L15.9237 13.697C15.9875 13.3139 16.3498 13.055 16.7329 13.119C17.1159 13.1828 17.3747 13.5451 17.3108 13.9281L16.6077 18.1469C16.5504 18.4908 16.2525 18.7346 15.915 18.7346C15.8766 18.7346 15.8377 18.7314 15.7985 18.7249C15.4155 18.661 15.1567 18.2987 15.2206 17.9157ZM11.2969 13.8125C11.2969 13.4242 11.6118 13.1094 12.0001 13.1094C12.3884 13.1094 12.7032 13.4242 12.7032 13.8125V18.0312C12.7032 18.4196 12.3884 18.7344 12.0001 18.7344C11.6118 18.7344 11.2969 18.4196 11.2969 18.0312V13.8125ZM7.31416 13.119C7.69727 13.0552 8.05948 13.3139 8.12332 13.697L8.82645 17.9157C8.89029 18.2987 8.63154 18.661 8.24848 18.7249C8.20938 18.7314 8.17043 18.7346 8.13204 18.7346C7.79449 18.7346 7.49665 18.4909 7.43932 18.1469L6.7362 13.9281C6.67235 13.5451 6.9311 13.1828 7.31416 13.119Z" fill="#616575"/>
</svg>
