<svg width="69" height="30" viewBox="0 0 69 30" fill="none" xmlns="http://www.w3.org/2000/svg">
    <g clip-path="url(#clip0_1307_25)">
        <path d="M13.034 20.9737V16.7601H17.6411V14.0378H13.034V11.7884H18.3018V9.02637H9.97949V20.9737H13.034Z" fill="#616575"/>
        <path d="M33.1192 18.1863H27.855V16.3341H32.6967V13.7887H27.855V11.7884H33.1192V9.02637H24.7969V20.9737H33.1192V18.1863Z" fill="#616575"/>
        <path d="M43.3228 9.02637H40.3008V20.9737H43.3228V9.02637Z" fill="#616575"/>
        <path d="M54.025 17.4823H55.7977C58.6826 17.4823 60.1521 15.3737 60.1521 13.2471C60.1521 11.1385 58.7006 9.02637 55.7797 9.02637H51.0029V20.9737H54.025V17.4823ZM54.025 11.8426H55.7797C57.603 11.8245 57.603 14.8141 55.7797 14.796H54.025V11.8426Z" fill="#616575"/>
        <path d="M0 0V30H68.4017H68.4306V0H0ZM65.6686 27.2379H2.76207V2.76207H65.6686V27.2379Z" fill="#616575"/>
    </g>
    <defs>
        <clipPath id="clip0_1307_25">
            <rect width="68.4306" height="30" fill="white"/>
        </clipPath>
    </defs>
</svg>
