<svg width="12" height="13" viewBox="0 0 12 13" fill="none" xmlns="http://www.w3.org/2000/svg">
    <path d="M7.41406 7.91406C7.80469 7.52344 8 7.05209 8 6.5C8 5.94791 7.80469 5.47656 7.41406 5.08594C7.02344 4.69531 6.55209 4.5 6 4.5C5.44791 4.5 4.97656 4.69531 4.58594 5.08594C4.19531 5.47656 4 5.94791 4 6.5C4 7.05209 4.19531 7.52344 4.58594 7.91406C4.97656 8.30469 5.44791 8.5 6 8.5C6.55209 8.5 7.02344 8.30469 7.41406 7.91406ZM8.17969 4.32031C8.77865 4.91927 9.07813 5.64583 9.07813 6.5C9.07813 7.35417 8.77865 8.08073 8.17969 8.67969C7.58073 9.27865 6.85417 9.57813 6 9.57813C5.14583 9.57813 4.41927 9.27865 3.82031 8.67969C3.22135 8.08073 2.92188 7.35417 2.92188 6.5C2.92188 5.64583 3.22135 4.91927 3.82031 4.32031C4.41927 3.72135 5.14583 3.42188 6 3.42188C6.85417 3.42188 7.58073 3.72135 8.17969 4.32031ZM9.71094 2.78906C9.85156 2.92969 9.92188 3.09896 9.92188 3.29688C9.92188 3.49479 9.85156 3.66406 9.71094 3.80469C9.57031 3.94531 9.40104 4.01563 9.20313 4.01563C9.00521 4.01563 8.83594 3.94531 8.69531 3.80469C8.55469 3.66406 8.48438 3.49479 8.48438 3.29688C8.48438 3.09896 8.55469 2.92969 8.69531 2.78906C8.83594 2.64844 9.00521 2.57813 9.20313 2.57813C9.40104 2.57813 9.57031 2.64844 9.71094 2.78906ZM6.59375 1.57812C6.23437 1.57812 6.03646 1.57812 6 1.57812C5.96354 1.57812 5.76433 1.57682 5.40234 1.57422C5.04036 1.57161 4.76563 1.57161 4.57812 1.57422C4.39062 1.57682 4.13932 1.58464 3.82422 1.59766C3.50911 1.61068 3.24089 1.63672 3.01953 1.67578C2.79818 1.71484 2.61198 1.76302 2.46094 1.82031C2.20052 1.92448 1.97136 2.07552 1.77344 2.27344C1.57552 2.47136 1.42448 2.70052 1.32031 2.96094C1.26302 3.11198 1.21484 3.29818 1.17578 3.51953C1.13672 3.74089 1.11068 4.00911 1.09766 4.32422C1.08464 4.63932 1.07682 4.89062 1.07422 5.07812C1.07161 5.26563 1.07161 5.54036 1.07422 5.90234C1.07682 6.26433 1.07812 6.46354 1.07812 6.5C1.07812 6.53646 1.07682 6.73568 1.07422 7.09766C1.07161 7.45964 1.07161 7.73437 1.07422 7.92188C1.07682 8.10938 1.08464 8.36068 1.09766 8.67578C1.11068 8.99089 1.13672 9.25911 1.17578 9.48047C1.21484 9.70182 1.26302 9.88802 1.32031 10.0391C1.42448 10.2995 1.57552 10.5286 1.77344 10.7266C1.97136 10.9245 2.20052 11.0755 2.46094 11.1797C2.61198 11.237 2.79818 11.2852 3.01953 11.3242C3.24089 11.3633 3.50911 11.3893 3.82422 11.4023C4.13932 11.4154 4.39062 11.4232 4.57812 11.4258C4.76563 11.4284 5.04036 11.4284 5.40234 11.4258C5.76433 11.4232 5.96354 11.4219 6 11.4219C6.03646 11.4219 6.23568 11.4232 6.59766 11.4258C6.95964 11.4284 7.23437 11.4284 7.42188 11.4258C7.60938 11.4232 7.86068 11.4154 8.17578 11.4023C8.49089 11.3893 8.75911 11.3633 8.98047 11.3242C9.20182 11.2852 9.38802 11.237 9.53906 11.1797C9.79948 11.0755 10.0286 10.9245 10.2266 10.7266C10.4245 10.5286 10.5755 10.2995 10.6797 10.0391C10.737 9.88802 10.7852 9.70182 10.8242 9.48047C10.8633 9.25911 10.8893 8.99089 10.9023 8.67578C10.9154 8.36068 10.9232 8.10938 10.9258 7.92188C10.9284 7.73437 10.9284 7.45964 10.9258 7.09766C10.9232 6.73568 10.9219 6.53646 10.9219 6.5C10.9219 6.46354 10.9232 6.26433 10.9258 5.90234C10.9284 5.54036 10.9284 5.26563 10.9258 5.07812C10.9232 4.89062 10.9154 4.63932 10.9023 4.32422C10.8893 4.00911 10.8633 3.74089 10.8242 3.51953C10.7852 3.29818 10.737 3.11198 10.6797 2.96094C10.5755 2.70052 10.4245 2.47136 10.2266 2.27344C10.0286 2.07552 9.79948 1.92448 9.53906 1.82031C9.38802 1.76302 9.20182 1.71484 8.98047 1.67578C8.75911 1.63672 8.49089 1.61068 8.17578 1.59766C7.86068 1.58464 7.60938 1.57682 7.42188 1.57422C7.23437 1.57161 6.95834 1.57292 6.59375 1.57812ZM11.9609 4.02344C11.987 4.48177 12 5.30729 12 6.5C12 7.69271 11.987 8.51823 11.9609 8.97656C11.9089 10.0599 11.5859 10.8984 10.9922 11.4922C10.3984 12.0859 9.5599 12.4089 8.47656 12.4609C8.01823 12.487 7.19271 12.5 6 12.5C4.80729 12.5 3.98177 12.487 3.52344 12.4609C2.4401 12.4089 1.60157 12.0859 1.00781 11.4922C0.414059 10.8984 0.0911461 10.0599 0.0390625 8.97656C0.0130207 8.51823 0 7.69271 0 6.5C0 5.30729 0.0130207 4.48177 0.0390625 4.02344C0.0911461 2.9401 0.414059 2.10157 1.00781 1.50781C1.60157 0.914059 2.4401 0.591146 3.52344 0.539062C3.98177 0.513021 4.80729 0.5 6 0.5C7.19271 0.5 8.01823 0.513021 8.47656 0.539062C9.5599 0.591146 10.3984 0.914059 10.9922 1.50781C11.5859 2.10157 11.9089 2.9401 11.9609 4.02344Z" fill="white"/>
</svg>
