<svg width="62" height="36" viewBox="0 0 62 36" fill="none" xmlns="http://www.w3.org/2000/svg">
    <path d="M0.232 0.755999H3.76V27H0.232V0.755999ZM9.72447 13.716C11.2845 12.204 13.2165 11.448 15.5205 11.448C17.8245 11.448 19.7445 12.204 21.2805 13.716C22.8405 15.204 23.6205 17.112 23.6205 19.44C23.6205 21.744 22.8405 23.664 21.2805 25.2C19.7445 26.712 17.8245 27.468 15.5205 27.468C13.2165 27.468 11.2845 26.712 9.72447 25.2C8.18847 23.664 7.42047 21.744 7.42047 19.44C7.42047 17.112 8.18847 15.204 9.72447 13.716ZM12.2445 23.004C13.0605 23.868 14.1525 24.3 15.5205 24.3C16.8885 24.3 17.9805 23.868 18.7965 23.004C19.6125 22.116 20.0205 20.94 20.0205 19.476C20.0205 17.868 19.5765 16.656 18.6885 15.84C17.8245 15.024 16.7685 14.616 15.5205 14.616C14.2725 14.616 13.2045 15.024 12.3165 15.84C11.4525 16.656 11.0205 17.868 11.0205 19.476C11.0205 20.94 11.4285 22.116 12.2445 23.004ZM38.3903 13.5V11.844H41.9183V25.776C41.9183 27.744 41.7503 29.34 41.4143 30.564C41.0783 31.812 40.4183 32.844 39.4343 33.66C38.1143 34.74 36.4343 35.28 34.3943 35.28C32.3303 35.28 30.6743 34.656 29.4263 33.408C28.2023 32.184 27.4583 30.612 27.1943 28.692H30.6143C30.7823 29.652 31.1543 30.444 31.7303 31.068C32.3783 31.764 33.2903 32.112 34.4663 32.112C35.6423 32.112 36.5663 31.776 37.2383 31.104C38.0063 30.36 38.3903 29.088 38.3903 27.288V25.308C37.2623 26.748 35.7263 27.468 33.7823 27.468C31.7423 27.468 30.0743 26.784 28.7783 25.416C27.2663 23.832 26.5103 21.828 26.5103 19.404C26.5103 16.98 27.2543 15.024 28.7423 13.536C30.1103 12.144 31.8263 11.448 33.8903 11.448C35.7383 11.448 37.2383 12.132 38.3903 13.5ZM34.3223 14.616C33.2423 14.616 32.3543 14.952 31.6583 15.624C30.6263 16.584 30.1103 17.868 30.1103 19.476C30.1103 21.132 30.6143 22.404 31.6223 23.292C32.3903 23.964 33.2903 24.3 34.3223 24.3C35.4983 24.3 36.4823 23.892 37.2743 23.076C38.1623 22.116 38.6063 20.928 38.6063 19.512C38.6063 17.88 38.1263 16.608 37.1663 15.696C36.4463 14.976 35.4983 14.616 34.3223 14.616ZM47.9042 13.716C49.4642 12.204 51.3962 11.448 53.7002 11.448C56.0042 11.448 57.9242 12.204 59.4602 13.716C61.0202 15.204 61.8002 17.112 61.8002 19.44C61.8002 21.744 61.0202 23.664 59.4602 25.2C57.9242 26.712 56.0042 27.468 53.7002 27.468C51.3962 27.468 49.4642 26.712 47.9042 25.2C46.3682 23.664 45.6002 21.744 45.6002 19.44C45.6002 17.112 46.3682 15.204 47.9042 13.716ZM50.4242 23.004C51.2402 23.868 52.3322 24.3 53.7002 24.3C55.0682 24.3 56.1602 23.868 56.9762 23.004C57.7922 22.116 58.2002 20.94 58.2002 19.476C58.2002 17.868 57.7562 16.656 56.8682 15.84C56.0042 15.024 54.9482 14.616 53.7002 14.616C52.4522 14.616 51.3842 15.024 50.4962 15.84C49.6322 16.656 49.2002 17.868 49.2002 19.476C49.2002 20.94 49.6082 22.116 50.4242 23.004Z" fill="white"/>
</svg>
