<svg width="21" height="24" viewBox="0 0 21 24" fill="none" xmlns="http://www.w3.org/2000/svg">
    <path d="M10.8285 11.5609C12.4167 11.5609 13.7921 10.9912 14.9158 9.86733C16.0395 8.74362 16.6091 7.36868 16.6091 5.78025C16.6091 4.19237 16.0395 2.81725 14.9156 1.69317C13.7917 0.569639 12.4166 0 10.8285 0C9.24005 0 7.86511 0.569639 6.74139 1.69335C5.61768 2.81707 5.04785 4.19218 5.04785 5.78025C5.04785 7.36868 5.61768 8.7438 6.74158 9.86751C7.86548 10.991 9.2406 11.5609 10.8285 11.5609V11.5609Z" fill="#616575"/>
    <path d="M20.9435 18.4547C20.9111 17.9871 20.8456 17.477 20.7491 16.9383C20.6517 16.3955 20.5262 15.8825 20.3761 15.4136C20.221 14.9289 20.0101 14.4502 19.7493 13.9916C19.4787 13.5155 19.1608 13.1009 18.8041 12.7598C18.4312 12.403 17.9745 12.116 17.4464 11.9067C16.9202 11.6985 16.337 11.5931 15.7131 11.5931C15.4681 11.5931 15.2312 11.6936 14.7736 11.9915C14.492 12.1752 14.1626 12.3876 13.7949 12.6225C13.4805 12.8228 13.0546 13.0105 12.5286 13.1804C12.0153 13.3465 11.4942 13.4307 10.9799 13.4307C10.4655 13.4307 9.94458 13.3465 9.43079 13.1804C8.90527 13.0107 8.47937 12.823 8.16534 12.6227C7.80115 12.3899 7.47156 12.1775 7.18573 11.9913C6.7287 11.6934 6.49158 11.5929 6.24658 11.5929C5.62256 11.5929 5.03955 11.6985 4.51349 11.9069C3.98578 12.1158 3.52893 12.4028 3.15558 12.76C2.79907 13.1013 2.48102 13.5157 2.21075 13.9916C1.9502 14.4502 1.73926 14.9287 1.58398 15.4137C1.43402 15.8827 1.30859 16.3955 1.21118 16.9383C1.11469 17.4762 1.04913 17.9865 1.01672 18.4553C0.984863 18.9145 0.96875 19.3911 0.96875 19.8725C0.96875 21.1253 1.367 22.1395 2.15234 22.8875C2.92798 23.6256 3.95428 24.0001 5.20233 24.0001H16.7585C18.0065 24.0001 19.0325 23.6258 19.8083 22.8875C20.5938 22.1401 20.9921 21.1257 20.9921 19.8723C20.9919 19.3888 20.9756 18.9118 20.9435 18.4547V18.4547Z" fill="#616575"/>
</svg>
